<svg id="svg" version="1.1" xmlns="http://www.w3.org/2000/svg" xmlns:xlink="http://www.w3.org/1999/xlink" width="400" height="400" viewBox="0, 0, 400,400"><g id="svgg"><path id="path0" d="M161.996 146.018 C 160.022 146.561,157.527 147.884,153.807 150.361 C 150.821 152.349,147.622 154.790,136.404 163.639 C 111.243 183.487,94.045 192.555,79.974 193.392 C 76.864 193.577,76.520 193.725,76.520 194.882 C 76.520 196.148,77.117 196.382,79.817 196.175 C 96.066 194.930,112.523 186.135,140.883 163.543 C 158.701 149.348,162.759 147.104,166.186 149.552 C 174.409 155.425,175.563 159.332,170.378 163.741 C 158.498 173.845,160.293 187.905,174.320 194.628 C 181.031 197.844,185.125 196.880,202.559 187.981 C 206.782 185.825,211.657 183.408,213.393 182.609 L 216.550 181.157 218.639 182.550 C 241.272 197.636,251.789 200.030,260.273 192.027 C 265.404 187.186,264.997 181.020,259.137 174.843 L 258.093 173.743 259.117 174.169 C 261.453 175.140,265.068 176.984,270.377 179.911 C 290.652 191.091,303.520 195.372,319.273 196.178 C 323.005 196.369,323.480 196.207,323.480 194.744 C 323.480 193.678,323.065 193.563,318.566 193.386 C 304.246 192.822,291.316 188.450,271.657 177.524 C 265.321 174.003,260.463 171.667,257.373 170.655 C 249.734 168.154,234.093 170.704,219.804 176.780 L 216.831 178.044 212.382 174.935 C 209.935 173.225,204.536 169.419,200.384 166.478 C 178.189 150.758,166.813 144.695,161.996 146.018 M176.711 154.076 C 181.427 156.706,189.772 162.256,200.896 170.162 C 204.063 172.413,208.273 175.375,210.253 176.745 L 213.851 179.236 202.752 184.825 C 183.624 194.457,181.315 195.070,175.324 192.108 C 165.952 187.476,162.641 178.805,167.306 171.108 C 168.199 169.634,170.157 167.545,173.589 164.403 C 177.031 161.252,177.298 157.935,174.451 153.697 L 173.431 152.179 174.303 152.700 C 174.783 152.986,175.867 153.605,176.711 154.076 M253.652 173.670 C 262.684 180.569,263.583 187.286,256.078 191.785 C 250.809 194.943,245.679 194.511,236.804 190.163 C 231.442 187.536,219.834 180.519,219.834 179.905 C 219.834 179.366,230.089 175.742,235.317 174.434 C 241.213 172.958,242.775 172.744,251.093 172.271 C 251.559 172.245,252.358 172.682,253.652 173.670 M126.060 216.059 C 125.854 216.376,123.126 222.380,119.997 229.403 C 113.486 244.018,113.725 242.866,117.210 242.866 C 119.502 242.866,119.779 242.702,120.546 240.883 L 121.112 239.539 127.109 239.539 L 133.106 239.539 133.756 241.011 C 134.569 242.850,134.583 242.858,136.959 242.862 C 139.175 242.867,139.731 242.727,139.731 242.165 C 139.731 241.647,128.493 216.506,128.004 215.931 C 127.473 215.306,126.509 215.369,126.060 216.059 M234.805 215.727 C 218.151 219.304,221.506 244.008,238.516 243.050 C 256.061 242.063,255.819 216.156,238.260 215.586 C 236.923 215.543,235.368 215.607,234.805 215.727 M271.785 215.831 C 267.743 217.005,265.837 219.416,265.867 223.322 C 265.896 227.057,267.854 228.993,273.704 231.072 C 278.022 232.606,279.309 233.560,279.263 235.194 C 279.161 238.754,273.355 239.121,269.329 235.822 C 267.878 234.633,267.481 234.692,265.936 236.325 C 264.137 238.227,264.315 238.866,267.179 240.779 C 274.672 245.782,284.604 242.524,284.652 235.047 C 284.678 231.082,282.957 229.380,276.647 227.128 C 271.253 225.202,269.685 223.446,271.628 221.503 C 273.159 219.972,277.993 220.380,279.076 222.132 C 279.679 223.109,283.045 220.616,283.045 219.192 C 283.045 216.952,275.590 214.726,271.785 215.831 M150.733 216.126 C 150.464 216.451,151.147 217.797,154.924 224.381 L 159.437 232.247 159.437 237.292 C 159.437 243.116,159.322 242.866,161.996 242.866 C 164.670 242.866,164.555 243.116,164.555 237.297 L 164.555 232.257 169.069 224.386 C 174.305 215.255,174.216 215.739,170.666 215.739 C 167.838 215.739,168.187 215.391,164.811 221.567 C 163.333 224.271,162.067 226.483,161.996 226.483 C 161.926 226.483,160.659 224.271,159.181 221.567 C 157.703 218.864,156.292 216.446,156.046 216.195 C 155.439 215.577,151.234 215.523,150.733 216.126 M186.999 216.109 C 186.558 216.549,186.295 241.100,186.720 242.206 C 186.945 242.794,199.019 242.804,201.269 242.219 C 213.863 238.938,214.394 220.826,202.020 216.607 C 199.356 215.698,187.792 215.315,186.999 216.109 M240.394 221.119 C 248.653 223.670,248.232 235.486,239.805 237.639 C 231.300 239.811,225.372 229.240,231.668 223.130 C 234.097 220.773,237.061 220.090,240.394 221.119 M201.098 221.575 C 207.315 224.875,207.196 233.961,200.896 236.951 C 199.614 237.559,199.151 237.626,195.713 237.707 L 191.939 237.795 191.939 229.304 L 191.939 220.812 195.969 220.902 C 199.571 220.983,200.117 221.055,201.098 221.575 M129.185 229.958 L 131.190 234.805 127.235 234.876 C 125.060 234.914,123.233 234.898,123.174 234.840 C 123.116 234.781,123.967 232.543,125.066 229.866 C 126.164 227.189,127.090 225.024,127.122 225.055 C 127.154 225.086,128.082 227.292,129.185 229.958 " stroke="none" fill="#044cac" fill-rule="evenodd"></path><path id="path1" d="" stroke="none" fill="#084cac" fill-rule="evenodd"></path><path id="path2" d="" stroke="none" fill="#084cac" fill-rule="evenodd"></path><path id="path3" d="" stroke="none" fill="#084cac" fill-rule="evenodd"></path><path id="path4" d="" stroke="none" fill="#084cac" fill-rule="evenodd"></path></g></svg>