<svg xmlns="http://www.w3.org/2000/svg" version="1.1" xmlns:xlink="http://www.w3.org/1999/xlink" width="1000" height="1000"><style>
    #light-icon {
      display: inline;
    }
    #dark-icon {
      display: none;
    }

    @media (prefers-color-scheme: dark) {
      #light-icon {
        display: none;
      }
      #dark-icon {
        display: inline;
      }
    }
  </style><g id="light-icon"><svg xmlns="http://www.w3.org/2000/svg" version="1.1" xmlns:xlink="http://www.w3.org/1999/xlink" width="1000" height="1000"><g><g transform="matrix(2.5,0,0,2.5,0,0)"><svg xmlns="http://www.w3.org/2000/svg" version="1.1" xmlns:xlink="http://www.w3.org/1999/xlink" width="400" height="400"><svg id="svg" version="1.1" xmlns="http://www.w3.org/2000/svg" xmlns:xlink="http://www.w3.org/1999/xlink" width="400" height="400" viewBox="0, 0, 400,400"><g id="svgg"><path id="path0" d="M161.996 146.018 C 160.022 146.561,157.527 147.884,153.807 150.361 C 150.821 152.349,147.622 154.790,136.404 163.639 C 111.243 183.487,94.045 192.555,79.974 193.392 C 76.864 193.577,76.520 193.725,76.520 194.882 C 76.520 196.148,77.117 196.382,79.817 196.175 C 96.066 194.930,112.523 186.135,140.883 163.543 C 158.701 149.348,162.759 147.104,166.186 149.552 C 174.409 155.425,175.563 159.332,170.378 163.741 C 158.498 173.845,160.293 187.905,174.320 194.628 C 181.031 197.844,185.125 196.880,202.559 187.981 C 206.782 185.825,211.657 183.408,213.393 182.609 L 216.550 181.157 218.639 182.550 C 241.272 197.636,251.789 200.030,260.273 192.027 C 265.404 187.186,264.997 181.020,259.137 174.843 L 258.093 173.743 259.117 174.169 C 261.453 175.140,265.068 176.984,270.377 179.911 C 290.652 191.091,303.520 195.372,319.273 196.178 C 323.005 196.369,323.480 196.207,323.480 194.744 C 323.480 193.678,323.065 193.563,318.566 193.386 C 304.246 192.822,291.316 188.450,271.657 177.524 C 265.321 174.003,260.463 171.667,257.373 170.655 C 249.734 168.154,234.093 170.704,219.804 176.780 L 216.831 178.044 212.382 174.935 C 209.935 173.225,204.536 169.419,200.384 166.478 C 178.189 150.758,166.813 144.695,161.996 146.018 M176.711 154.076 C 181.427 156.706,189.772 162.256,200.896 170.162 C 204.063 172.413,208.273 175.375,210.253 176.745 L 213.851 179.236 202.752 184.825 C 183.624 194.457,181.315 195.070,175.324 192.108 C 165.952 187.476,162.641 178.805,167.306 171.108 C 168.199 169.634,170.157 167.545,173.589 164.403 C 177.031 161.252,177.298 157.935,174.451 153.697 L 173.431 152.179 174.303 152.700 C 174.783 152.986,175.867 153.605,176.711 154.076 M253.652 173.670 C 262.684 180.569,263.583 187.286,256.078 191.785 C 250.809 194.943,245.679 194.511,236.804 190.163 C 231.442 187.536,219.834 180.519,219.834 179.905 C 219.834 179.366,230.089 175.742,235.317 174.434 C 241.213 172.958,242.775 172.744,251.093 172.271 C 251.559 172.245,252.358 172.682,253.652 173.670 M126.060 216.059 C 125.854 216.376,123.126 222.380,119.997 229.403 C 113.486 244.018,113.725 242.866,117.210 242.866 C 119.502 242.866,119.779 242.702,120.546 240.883 L 121.112 239.539 127.109 239.539 L 133.106 239.539 133.756 241.011 C 134.569 242.850,134.583 242.858,136.959 242.862 C 139.175 242.867,139.731 242.727,139.731 242.165 C 139.731 241.647,128.493 216.506,128.004 215.931 C 127.473 215.306,126.509 215.369,126.060 216.059 M234.805 215.727 C 218.151 219.304,221.506 244.008,238.516 243.050 C 256.061 242.063,255.819 216.156,238.260 215.586 C 236.923 215.543,235.368 215.607,234.805 215.727 M271.785 215.831 C 267.743 217.005,265.837 219.416,265.867 223.322 C 265.896 227.057,267.854 228.993,273.704 231.072 C 278.022 232.606,279.309 233.560,279.263 235.194 C 279.161 238.754,273.355 239.121,269.329 235.822 C 267.878 234.633,267.481 234.692,265.936 236.325 C 264.137 238.227,264.315 238.866,267.179 240.779 C 274.672 245.782,284.604 242.524,284.652 235.047 C 284.678 231.082,282.957 229.380,276.647 227.128 C 271.253 225.202,269.685 223.446,271.628 221.503 C 273.159 219.972,277.993 220.380,279.076 222.132 C 279.679 223.109,283.045 220.616,283.045 219.192 C 283.045 216.952,275.590 214.726,271.785 215.831 M150.733 216.126 C 150.464 216.451,151.147 217.797,154.924 224.381 L 159.437 232.247 159.437 237.292 C 159.437 243.116,159.322 242.866,161.996 242.866 C 164.670 242.866,164.555 243.116,164.555 237.297 L 164.555 232.257 169.069 224.386 C 174.305 215.255,174.216 215.739,170.666 215.739 C 167.838 215.739,168.187 215.391,164.811 221.567 C 163.333 224.271,162.067 226.483,161.996 226.483 C 161.926 226.483,160.659 224.271,159.181 221.567 C 157.703 218.864,156.292 216.446,156.046 216.195 C 155.439 215.577,151.234 215.523,150.733 216.126 M186.999 216.109 C 186.558 216.549,186.295 241.100,186.720 242.206 C 186.945 242.794,199.019 242.804,201.269 242.219 C 213.863 238.938,214.394 220.826,202.020 216.607 C 199.356 215.698,187.792 215.315,186.999 216.109 M240.394 221.119 C 248.653 223.670,248.232 235.486,239.805 237.639 C 231.300 239.811,225.372 229.240,231.668 223.130 C 234.097 220.773,237.061 220.090,240.394 221.119 M201.098 221.575 C 207.315 224.875,207.196 233.961,200.896 236.951 C 199.614 237.559,199.151 237.626,195.713 237.707 L 191.939 237.795 191.939 229.304 L 191.939 220.812 195.969 220.902 C 199.571 220.983,200.117 221.055,201.098 221.575 M129.185 229.958 L 131.190 234.805 127.235 234.876 C 125.060 234.914,123.233 234.898,123.174 234.840 C 123.116 234.781,123.967 232.543,125.066 229.866 C 126.164 227.189,127.090 225.024,127.122 225.055 C 127.154 225.086,128.082 227.292,129.185 229.958 " stroke="none" fill="#044cac" fill-rule="evenodd"></path><path id="path1" d="" stroke="none" fill="#084cac" fill-rule="evenodd"></path><path id="path2" d="" stroke="none" fill="#084cac" fill-rule="evenodd"></path><path id="path3" d="" stroke="none" fill="#084cac" fill-rule="evenodd"></path><path id="path4" d="" stroke="none" fill="#084cac" fill-rule="evenodd"></path></g></svg></svg></g></g></svg></g><g id="dark-icon"><svg xmlns="http://www.w3.org/2000/svg" version="1.1" xmlns:xlink="http://www.w3.org/1999/xlink" width="1000" height="1000"><g><g transform="matrix(2,0,0,2,0,250)"><svg xmlns="http://www.w3.org/2000/svg" version="1.1" xmlns:xlink="http://www.w3.org/1999/xlink" width="500" height="250"><svg xmlns="http://www.w3.org/2000/svg" xmlns:xlink="http://www.w3.org/1999/xlink" width="500" zoomAndPan="magnify" viewBox="0 0 375 187.499995" height="250" preserveAspectRatio="xMidYMid meet" version="1.0"><defs><g></g><clipPath id="8cb6c300af"><path d="M 22.03125 20 L 352.652344 20 L 352.652344 88.929688 L 22.03125 88.929688 Z M 22.03125 20 " clip-rule="nonzero"></path></clipPath></defs><g clip-path="url(#8cb6c300af)"><path fill="#ffffff" d="M 351.316406 84.988281 C 322.394531 84.988281 299.882812 72.59375 283.445312 63.546875 C 273.035156 57.816406 264.808594 53.285156 257.773438 53.007812 C 241.46875 52.351562 224.855469 57.773438 210.074219 64.261719 C 204.585938 60.5 198.992188 56.527344 193.433594 52.574219 C 174.667969 39.238281 155.265625 25.4375 141.175781 21.105469 C 141.132812 21.085938 141.082031 21.085938 141.03125 21.078125 C 141.003906 21.070312 140.980469 21.070312 140.953125 21.0625 C 134.695312 19.414062 123.6875 28.085938 107.117188 41.171875 C 83.707031 59.664062 51.640625 84.988281 23.679688 84.988281 C 22.765625 84.988281 22.03125 85.722656 22.03125 86.628906 C 22.03125 87.542969 22.765625 88.277344 23.679688 88.277344 C 52.777344 88.277344 85.363281 62.546875 109.160156 43.761719 C 122.628906 33.121094 135.34375 23.082031 140.046875 24.230469 C 150.164062 30.960938 152.40625 35.597656 152.492188 38.296875 C 152.5625 40.40625 151.40625 42.328125 148.964844 44.167969 C 141.4375 49.847656 137.308594 57.097656 137.34375 64.589844 C 137.378906 71.496094 141.089844 78.03125 147.789062 82.984375 C 152.761719 86.652344 157.308594 88.355469 162.300781 88.355469 C 162.9375 88.355469 163.578125 88.328125 164.234375 88.269531 C 170.292969 87.757812 179.042969 83.277344 190.128906 77.609375 C 196.039062 74.578125 202.671875 71.195312 209.730469 68.035156 C 226.933594 79.757812 242.503906 88.8125 253.613281 88.8125 C 255.230469 88.8125 256.75 88.621094 258.15625 88.214844 C 264.472656 86.429688 271.648438 81.949219 272.828125 74.734375 C 273.476562 70.753906 272.328125 64.839844 264.480469 57.839844 C 269.429688 59.621094 275.167969 62.753906 281.859375 66.429688 C 298.605469 75.648438 321.546875 88.277344 351.316406 88.277344 C 352.222656 88.277344 352.964844 87.542969 352.964844 86.628906 C 352.964844 85.722656 352.234375 84.988281 351.316406 84.988281 Z M 188.625 74.671875 C 178.292969 79.964844 169.367188 84.53125 163.957031 84.988281 C 158.992188 85.402344 154.730469 84.019531 149.75 80.335938 C 143.820312 75.960938 140.667969 70.503906 140.640625 64.574219 C 140.605469 58.152344 144.265625 51.832031 150.949219 46.792969 C 154.261719 44.296875 155.886719 41.398438 155.78125 38.195312 C 155.6875 35.191406 154.039062 32.066406 150.871094 28.761719 C 162.964844 34.949219 177.421875 45.230469 191.527344 55.261719 C 196.609375 58.875 201.644531 62.449219 206.554688 65.84375 C 200.125 68.804688 194.074219 71.894531 188.625 74.671875 Z M 269.574219 74.199219 C 268.644531 79.894531 262.359375 83.597656 257.257812 85.046875 C 247.710938 87.742188 231.25 78.558594 213.296875 66.464844 C 227.082031 60.578125 242.316406 55.855469 257.164062 56.296875 C 266.164062 62.535156 270.472656 68.726562 269.574219 74.199219 Z M 269.574219 74.199219 " fill-opacity="1" fill-rule="nonzero"></path></g><g fill="#ffffff" fill-opacity="1"><g transform="translate(71.894385, 150.536654)"><g><path d="M 34.5625 -1.15625 C 34.71875 -0.8125 34.722656 -0.523438 34.578125 -0.296875 C 34.441406 -0.0664062 34.175781 0.046875 33.78125 0.046875 L 28.734375 0.046875 C 28.460938 0.046875 28.222656 -0.0390625 28.015625 -0.21875 C 27.804688 -0.40625 27.644531 -0.625 27.53125 -0.875 L 26.09375 -4.34375 L 9.703125 -4.34375 L 8.265625 -0.890625 C 8.160156 -0.640625 8.003906 -0.421875 7.796875 -0.234375 C 7.597656 -0.0546875 7.347656 0.03125 7.046875 0.03125 L 2.015625 0.03125 C 1.628906 0.03125 1.359375 -0.078125 1.203125 -0.296875 C 1.054688 -0.523438 1.0625 -0.816406 1.21875 -1.171875 L 16.421875 -35.234375 C 16.546875 -35.515625 16.726562 -35.738281 16.96875 -35.90625 C 17.21875 -36.070312 17.46875 -36.15625 17.71875 -36.15625 L 18.015625 -36.15625 C 18.296875 -36.15625 18.550781 -36.066406 18.78125 -35.890625 C 19.007812 -35.722656 19.1875 -35.5 19.3125 -35.21875 Z M 12.03125 -10.03125 L 23.75 -10.03125 L 17.90625 -24.25 Z M 12.03125 -10.03125 "></path></g></g></g><g fill="#ffffff" fill-opacity="1"><g transform="translate(120.906823, 150.536654)"><g><path d="M 30 -35.734375 C 30.351562 -35.734375 30.601562 -35.625 30.75 -35.40625 C 30.894531 -35.1875 30.878906 -34.878906 30.703125 -34.484375 L 19 -14.125 L 19 -1.03125 C 19 -0.320312 18.664062 0.03125 18 0.03125 L 13.4375 0.03125 C 12.71875 0.03125 12.359375 -0.320312 12.359375 -1.03125 L 12.359375 -14.171875 L 0.6875 -34.484375 C 0.53125 -34.890625 0.523438 -35.195312 0.671875 -35.40625 C 0.816406 -35.625 1.070312 -35.734375 1.4375 -35.734375 L 6.765625 -35.734375 C 7.003906 -35.734375 7.234375 -35.644531 7.453125 -35.46875 C 7.679688 -35.300781 7.867188 -35.082031 8.015625 -34.8125 L 15.6875 -20.890625 L 23.375 -34.84375 C 23.695312 -35.4375 24.128906 -35.734375 24.671875 -35.734375 Z M 30 -35.734375 "></path></g></g></g><g fill="#ffffff" fill-opacity="1"><g transform="translate(165.549608, 150.536654)"><g><path d="M 4.25 -1.03125 L 4.25 -34.65625 C 4.25 -34.96875 4.347656 -35.21875 4.546875 -35.40625 C 4.753906 -35.59375 5.007812 -35.6875 5.3125 -35.6875 L 18.4375 -35.6875 C 20.539062 -35.6875 22.507812 -35.398438 24.34375 -34.828125 C 26.1875 -34.253906 27.851562 -33.4375 29.34375 -32.375 C 30.84375 -31.320312 32.125 -30.054688 33.1875 -28.578125 C 34.257812 -27.109375 35.082031 -25.46875 35.65625 -23.65625 C 36.238281 -21.84375 36.53125 -19.898438 36.53125 -17.828125 C 36.53125 -15.773438 36.238281 -13.84375 35.65625 -12.03125 C 35.082031 -10.226562 34.257812 -8.585938 33.1875 -7.109375 C 32.113281 -5.640625 30.828125 -4.375 29.328125 -3.3125 C 27.828125 -2.25 26.15625 -1.429688 24.3125 -0.859375 C 22.46875 -0.285156 20.476562 0 18.34375 0 L 5.328125 0 C 5.015625 0 4.753906 -0.0976562 4.546875 -0.296875 C 4.347656 -0.492188 4.25 -0.738281 4.25 -1.03125 Z M 10.90625 -6.296875 L 18.328125 -6.296875 C 20.003906 -6.296875 21.546875 -6.59375 22.953125 -7.1875 C 24.359375 -7.78125 25.578125 -8.601562 26.609375 -9.65625 C 27.648438 -10.71875 28.453125 -11.945312 29.015625 -13.34375 C 29.585938 -14.738281 29.875 -16.234375 29.875 -17.828125 C 29.875 -19.472656 29.585938 -21 29.015625 -22.40625 C 28.453125 -23.820312 27.65625 -25.0625 26.625 -26.125 C 25.601562 -27.1875 24.394531 -28.007812 23 -28.59375 C 21.601562 -29.1875 20.078125 -29.484375 18.421875 -29.484375 L 10.90625 -29.453125 Z M 10.90625 -6.296875 "></path></g></g></g><g fill="#ffffff" fill-opacity="1"><g transform="translate(217.428157, 150.536654)"><g><path d="M 2.109375 -17.78125 C 2.109375 -19.851562 2.414062 -21.816406 3.03125 -23.671875 C 3.644531 -25.523438 4.515625 -27.210938 5.640625 -28.734375 C 6.765625 -30.265625 8.09375 -31.585938 9.625 -32.703125 C 11.164062 -33.828125 12.867188 -34.691406 14.734375 -35.296875 C 16.597656 -35.910156 18.5625 -36.21875 20.625 -36.21875 C 22.6875 -36.21875 24.648438 -35.910156 26.515625 -35.296875 C 28.378906 -34.691406 30.078125 -33.828125 31.609375 -32.703125 C 33.148438 -31.585938 34.484375 -30.265625 35.609375 -28.734375 C 36.734375 -27.210938 37.601562 -25.523438 38.21875 -23.671875 C 38.832031 -21.816406 39.140625 -19.851562 39.140625 -17.78125 C 39.140625 -15.71875 38.832031 -13.757812 38.21875 -11.90625 C 37.601562 -10.0625 36.734375 -8.378906 35.609375 -6.859375 C 34.484375 -5.335938 33.148438 -4.019531 31.609375 -2.90625 C 30.078125 -1.800781 28.378906 -0.945312 26.515625 -0.34375 C 24.648438 0.257812 22.6875 0.5625 20.625 0.5625 C 18.5625 0.5625 16.597656 0.257812 14.734375 -0.34375 C 12.867188 -0.945312 11.164062 -1.800781 9.625 -2.90625 C 8.09375 -4.019531 6.765625 -5.335938 5.640625 -6.859375 C 4.515625 -8.378906 3.644531 -10.0625 3.03125 -11.90625 C 2.414062 -13.757812 2.109375 -15.71875 2.109375 -17.78125 Z M 8.734375 -17.78125 C 8.734375 -16.125 9.035156 -14.585938 9.640625 -13.171875 C 10.242188 -11.753906 11.085938 -10.507812 12.171875 -9.4375 C 13.265625 -8.375 14.53125 -7.546875 15.96875 -6.953125 C 17.414062 -6.359375 18.96875 -6.0625 20.625 -6.0625 C 22.300781 -6.0625 23.851562 -6.359375 25.28125 -6.953125 C 26.71875 -7.546875 27.976562 -8.375 29.0625 -9.4375 C 30.15625 -10.507812 31.003906 -11.753906 31.609375 -13.171875 C 32.210938 -14.585938 32.515625 -16.125 32.515625 -17.78125 C 32.515625 -19.457031 32.207031 -21.007812 31.59375 -22.4375 C 30.976562 -23.875 30.128906 -25.128906 29.046875 -26.203125 C 27.972656 -27.273438 26.710938 -28.113281 25.265625 -28.71875 C 23.828125 -29.320312 22.28125 -29.625 20.625 -29.625 C 18.96875 -29.625 17.414062 -29.320312 15.96875 -28.71875 C 14.53125 -28.113281 13.269531 -27.273438 12.1875 -26.203125 C 11.113281 -25.128906 10.269531 -23.875 9.65625 -22.4375 C 9.039062 -21.007812 8.734375 -19.457031 8.734375 -17.78125 Z M 8.734375 -17.78125 "></path></g></g></g><g fill="#ffffff" fill-opacity="1"><g transform="translate(271.914403, 150.536654)"><g><path d="M 16.109375 0.5625 C 14.765625 0.5625 13.425781 0.414062 12.09375 0.125 C 10.757812 -0.164062 9.492188 -0.578125 8.296875 -1.109375 C 7.097656 -1.640625 6.007812 -2.269531 5.03125 -3 C 4.0625 -3.726562 3.253906 -4.53125 2.609375 -5.40625 C 2.429688 -5.625 2.359375 -5.867188 2.390625 -6.140625 C 2.421875 -6.410156 2.5625 -6.675781 2.8125 -6.9375 L 5.875 -9.984375 C 6.09375 -10.179688 6.335938 -10.257812 6.609375 -10.21875 C 6.890625 -10.1875 7.171875 -10.035156 7.453125 -9.765625 C 8.148438 -9.015625 8.960938 -8.335938 9.890625 -7.734375 C 10.816406 -7.128906 11.796875 -6.648438 12.828125 -6.296875 C 13.859375 -5.953125 14.867188 -5.78125 15.859375 -5.78125 C 17.859375 -5.78125 19.390625 -6.171875 20.453125 -6.953125 C 21.523438 -7.734375 22.0625 -8.8125 22.0625 -10.1875 C 22.0625 -11.039062 21.765625 -11.765625 21.171875 -12.359375 C 20.585938 -12.960938 19.738281 -13.515625 18.625 -14.015625 C 17.507812 -14.523438 16.148438 -15.050781 14.546875 -15.59375 C 12.847656 -16.144531 11.34375 -16.738281 10.03125 -17.375 C 8.71875 -18.007812 7.597656 -18.734375 6.671875 -19.546875 C 5.742188 -20.359375 5.039062 -21.300781 4.5625 -22.375 C 4.09375 -23.457031 3.859375 -24.722656 3.859375 -26.171875 C 3.859375 -28.191406 4.351562 -29.953125 5.34375 -31.453125 C 6.332031 -32.953125 7.738281 -34.117188 9.5625 -34.953125 C 11.394531 -35.796875 13.554688 -36.21875 16.046875 -36.21875 C 17.390625 -36.21875 18.707031 -36.050781 20 -35.71875 C 21.289062 -35.382812 22.472656 -34.914062 23.546875 -34.3125 C 24.617188 -33.707031 25.5 -33 26.1875 -32.1875 C 26.4375 -31.914062 26.566406 -31.625 26.578125 -31.3125 C 26.585938 -31 26.484375 -30.707031 26.265625 -30.4375 L 23.796875 -27.625 C 23.460938 -27.226562 23.128906 -27.050781 22.796875 -27.09375 C 22.472656 -27.132812 22.125 -27.28125 21.75 -27.53125 C 20.945312 -28.28125 20.003906 -28.863281 18.921875 -29.28125 C 17.835938 -29.695312 16.773438 -29.90625 15.734375 -29.90625 C 14.023438 -29.90625 12.703125 -29.546875 11.765625 -28.828125 C 10.828125 -28.117188 10.359375 -27.207031 10.359375 -26.09375 C 10.359375 -25.207031 10.691406 -24.445312 11.359375 -23.8125 C 12.035156 -23.175781 12.945312 -22.609375 14.09375 -22.109375 C 15.238281 -21.609375 16.507812 -21.125 17.90625 -20.65625 C 19.34375 -20.175781 20.71875 -19.660156 22.03125 -19.109375 C 23.34375 -18.566406 24.515625 -17.910156 25.546875 -17.140625 C 26.585938 -16.378906 27.410156 -15.441406 28.015625 -14.328125 C 28.617188 -13.210938 28.921875 -11.863281 28.921875 -10.28125 C 28.921875 -8.625 28.601562 -7.125 27.96875 -5.78125 C 27.34375 -4.445312 26.460938 -3.304688 25.328125 -2.359375 C 24.191406 -1.410156 22.84375 -0.6875 21.28125 -0.1875 C 19.71875 0.3125 17.992188 0.5625 16.109375 0.5625 Z M 16.109375 0.5625 "></path></g></g></g></svg></svg></g></g></svg></g></svg>